<svg xmlns="http://www.w3.org/2000/svg" width="344.6" height="106.624" viewBox="0 0 344.6 106.624">
  <g id="Group_35157" data-name="Group 35157" transform="translate(-181.782 -85.973)">
    <path id="Path_902" data-name="Path 902" d="M92.874,30.733a2.225,2.225,0,0,0-.388-2.052,3.209,3.209,0,0,0-2.135-.547h-.928a4.073,4.073,0,0,0-3.049,1.059,7.8,7.8,0,0,0-1.41,3.074l-.417,1.49h7.576l.344-1.272c.214-.848.352-1.432.406-1.751M98.7,32.089c-.12.384-.25.866-.4,1.454L97.384,36.8h-13.7l-.913,3.3a8.782,8.782,0,0,0-.214.968c-.246,1.584.605,2.367,2.563,2.367h.917a4.675,4.675,0,0,0,2.4-.5,4.271,4.271,0,0,0,1.49-1.958h6.177A10.106,10.106,0,0,1,92.1,46.161a12.08,12.08,0,0,1-6.224,1.41H82.858Q79,47.571,77.49,46.3c-1.153-.993-1.541-2.744-1.138-5.231l.236-1.541c.178-.562.294-.935.362-1.142l1.33-4.839c.9-3.31,2.146-5.648,3.73-6.993,1.653-1.461,4.118-2.2,7.352-2.2h3.02c2.577,0,4.361.424,5.372,1.272q1.724,1.5,1.135,5.235Z" transform="translate(318.063 95.319)"/>
    <path id="Path_903" data-name="Path 903" d="M105.1,29.317c-.12.739-.352,1.78-.714,3.128l-.435,1.628H98.143l.279-1.059a8.753,8.753,0,0,0,.265-1.1,2.339,2.339,0,0,0-.228-1.845,2.278,2.278,0,0,0-1.765-.529,3.193,3.193,0,0,0-2.9,1.675,14.766,14.766,0,0,0-1.229,3.335L89,47.264H82.784L89.1,24.658h6.047l-.8,2.86.319-.043a7.4,7.4,0,0,1,6.405-3.121q2.664,0,3.56,1.142c.6.765.75,2.037.471,3.821" transform="translate(335.354 95.322)"/>
    <path id="Path_904" data-name="Path 904" d="M124.1,29.5a27.6,27.6,0,0,1-.685,2.944L119.284,47.26H113.1l3.727-13.188c.247-.939.413-1.639.489-2.113.149-.993.058-1.649-.3-1.958a3.363,3.363,0,0,0-2.081-.46,3.424,3.424,0,0,0-3.009,1.628,14.038,14.038,0,0,0-1.287,3.389L107.1,47.26h-6.13l3.719-13.188c.25-.939.413-1.639.493-2.113.152-.993.054-1.649-.3-1.958a3.289,3.289,0,0,0-2.055-.46,3.41,3.41,0,0,0-2.987,1.628,14.7,14.7,0,0,0-1.272,3.389l-3.553,12.7H88.8l6.322-22.6h5.956l-.776,2.991.315-.047a7.9,7.9,0,0,1,6.906-3.252q2.5,0,3.426,1.048a5.856,5.856,0,0,1,.986,3.476q2.991-4.529,7.721-4.524c1.9,0,3.186.384,3.868,1.138s.877,2.1.576,4.006" transform="translate(351.147 95.322)"/>
    <path id="Path_905" data-name="Path 905" d="M113.575,39.086c.21-1.319-.468-1.979-2-1.979H109.6a3.1,3.1,0,0,0-3.324,2.5l-.337,1.233a2.124,2.124,0,0,0-.123.522c-.21,1.323.478,1.99,2.052,1.99h1.965a3.08,3.08,0,0,0,3.288-2.512l.348-1.233c.033-.116.065-.29.109-.526m8.664-8.011a2.885,2.885,0,0,0-.17.533l-4.4,15.656h-6.3l.855-3.081q-3.42,3.388-6.434,3.382h-2.581c-3.27,0-4.64-1.624-4.129-4.876.025-.145.065-.341.134-.594a4.577,4.577,0,0,0,.138-.591l.613-2.2a7.493,7.493,0,0,1,3.012-4.394,8.487,8.487,0,0,1,5.035-1.45h1.965a4.611,4.611,0,0,1,4.383,2.976l1.7-5.887a5.07,5.07,0,0,0,.141-.613c.207-1.254-.413-1.892-1.841-1.892h-1.229a4.709,4.709,0,0,0-1.878.268,2.4,2.4,0,0,0-1.283,1.454H103.7a7.444,7.444,0,0,1,3.408-4.361,11.089,11.089,0,0,1,5.285-1.051h3.418c2.4,0,4.107.334,5.14,1.011,1.32.848,1.82,2.385,1.461,4.618Z" transform="translate(377.853 95.322)"/>
    <path id="Path_906" data-name="Path 906" d="M130.2,29.585a27.083,27.083,0,0,1-.667,2.856L125.4,47.264h-6.268l3.719-13.191a18.635,18.635,0,0,0,.431-1.983c.163-1.08,0-1.8-.5-2.15a4.5,4.5,0,0,0-2.356-.4,3.805,3.805,0,0,0-3.3,1.45,11.049,11.049,0,0,0-1.446,3.56l-3.56,12.713h-6.221l6.326-22.6h6.043l-.819,2.944h.391c1.631-2.168,4.046-3.252,7.265-3.252,2.077,0,3.491.352,4.259,1.051q1.305,1.2.83,4.18" transform="translate(396.054 95.322)"/>
    <path id="Path_907" data-name="Path 907" d="M95.7,31.883,93.99,38.209H79.4l-1.82,6.5H92.293l-1.486,5.84H76.093l-1.972,6.507H89.614l-1.78,6.329H68.151A2.554,2.554,0,0,1,65.7,60.14l7.047-25.179a4.2,4.2,0,0,1,4.042-3.078Z" transform="translate(290.258 115.085)"/>
    <path id="Path_908" data-name="Path 908" d="M99.319,34.429,91.08,45.087,93.816,56.7H86.824l-1.03-9.316L79.356,56.7H72.5l9.36-11.694-2.3-10.578h6.9l.584,8.628,5.59-8.628Z" transform="translate(308.351 121.77)"/>
    <path id="Path_909" data-name="Path 909" d="M97.888,41.783a2.619,2.619,0,0,0-.265-2.037,2.4,2.4,0,0,0-1.925-.6h-.816a3.351,3.351,0,0,0-3.049,1.428,12.471,12.471,0,0,0-1.3,3.284l-.993,3.56c-.17.718-.315,1.41-.421,2.077a2.671,2.671,0,0,0,.265,2.041,2.353,2.353,0,0,0,1.9.605h.819a3.465,3.465,0,0,0,3.027-1.428,12.342,12.342,0,0,0,1.294-3.3l1.008-3.553a17.716,17.716,0,0,0,.453-2.084m6.4.217c-.062.207-.185.638-.381,1.3l-1.345,4.72a16.04,16.04,0,0,1-3.168,6.369,8.069,8.069,0,0,1-6.282,2.6q-4.627,0-5.111-2.682h-.384L84.489,65.484H78.356l8.617-30.8h5.952l-.8,2.86h.392A8.33,8.33,0,0,1,99.5,34.334q5.992,0,4.973,6.5Z" transform="translate(323.729 121.519)"/>
    <path id="Path_910" data-name="Path 910" d="M102.172,40.633c.156-.979.029-1.657-.377-2.012a3.172,3.172,0,0,0-2.11-.544h-.906a4.013,4.013,0,0,0-3.012,1.044,7.72,7.72,0,0,0-1.385,3.027l-.413,1.479h7.475l.326-1.265c.221-.834.348-1.41.4-1.729m5.746,1.341c-.116.373-.25.852-.4,1.432l-.9,3.208h-13.5l-.892,3.248a5.27,5.27,0,0,0-.214.957c-.247,1.559.594,2.331,2.523,2.331h.9a4.628,4.628,0,0,0,2.374-.493,4.321,4.321,0,0,0,1.465-1.929h6.086a10.024,10.024,0,0,1-3.958,5.115,11.951,11.951,0,0,1-6.126,1.381H92.3q-3.8,0-5.289-1.247-1.7-1.484-1.127-5.162l.243-1.519c.17-.544.29-.921.348-1.124L87.8,43.407c.888-3.262,2.11-5.564,3.676-6.888q2.458-2.175,7.254-2.175H101.7c2.53,0,4.292.428,5.282,1.258,1.138.982,1.512,2.708,1.127,5.158Z" transform="translate(343.12 121.545)"/>
    <path id="Path_911" data-name="Path 911" d="M113.568,39.246a31.012,31.012,0,0,1-.707,3.078l-.428,1.6h-5.728l.275-1.044a10.177,10.177,0,0,0,.268-1.084,2.308,2.308,0,0,0-.236-1.816,2.215,2.215,0,0,0-1.736-.522,3.153,3.153,0,0,0-2.86,1.649,15.176,15.176,0,0,0-1.214,3.3L97.7,56.922H91.575L97.8,34.653h5.96l-.8,2.817.315-.044a7.313,7.313,0,0,1,6.311-3.081q2.632,0,3.513,1.131c.584.747.74,2.008.464,3.77" transform="translate(358.429 121.548)"/>
    <path id="Path_912" data-name="Path 912" d="M118.531,37.661l-1.269,4.51h-9.407l-2.773,9.791a16.053,16.053,0,0,0-.381,1.675c-.127.823-.014,1.37.355,1.62a2.972,2.972,0,0,0,1.758.344,3.377,3.377,0,0,0,2.3-.613,5.135,5.135,0,0,0,1.138-2.287l.41-1.479h5l-.605,2.168q-1.876,6.726-8.261,6.717h-3.759q-5.693,0-4.945-4.749a16.309,16.309,0,0,1,.529-2.255l.366-1.251,2.7-9.682H99.134l1.28-4.51h2.567l1.185-4.415h6.181l-1.232,4.415Z" transform="translate(375.299 118.664)"/>
    <path id="Path_913" data-name="Path 913" d="M126.654,38.981a7.948,7.948,0,0,1-.192.957H120.3q.294-1.865-2.552-1.863h-.9q-3.061,0-3.636,2.041a6.647,6.647,0,0,0-.283.95l-.054.261c-.174,1.069.468,1.675,1.91,1.816l4.886.479c3.832.381,5.535,1.845,5.129,4.423a5.433,5.433,0,0,1-.167.779l-.565,1.947a8.4,8.4,0,0,1-3.534,4.9,10.351,10.351,0,0,1-5.764,1.559h-4.713q-7.335,0-6.525-5.111l.08-.522c.04-.261.069-.446.083-.566l.022.178h6.518c-.239,1.5.649,2.255,2.668,2.255h.946a5.365,5.365,0,0,0,2.7-.547,3.539,3.539,0,0,0,1.407-2.2c.062-.232.112-.453.145-.656a1.412,1.412,0,0,0-.729-1.7,6.643,6.643,0,0,0-2.045-.439l-4.365-.468c-3.484-.37-5-1.99-4.549-4.843a5.449,5.449,0,0,1,.145-.645l.551-1.852q1.729-5.769,9.45-5.771h4.365q6.471,0,5.738,4.636" transform="translate(389.59 121.548)"/>
    <path id="Path_914" data-name="Path 914" d="M90.6,43.73a1.221,1.221,0,0,0-.051.174l-.152.547H88.227a1.914,1.914,0,0,0,.051-.236c.065-.439-.217-.652-.859-.652h-.584a2.2,2.2,0,0,0-.848.12.945.945,0,0,0-.547.667l-.12.4a.842.842,0,0,0-.04.156.437.437,0,0,0,.283.522,3.724,3.724,0,0,0,.682.116l1.812.21c1.341.159,1.918.787,1.744,1.892a1.4,1.4,0,0,1-.04.178L89.72,48l-.265.942a3.464,3.464,0,0,1-1.214,1.849,3.313,3.313,0,0,1-2.059.685H84.109a3.974,3.974,0,0,1-1.831-.326A1.345,1.345,0,0,1,81.64,49.6l.033-.21a1.948,1.948,0,0,1,.065-.247l.152-.536h2.171a.431.431,0,0,0-.033.131l-.018.105a.582.582,0,0,0,.294.692,2.1,2.1,0,0,0,.827.116h.638a2.115,2.115,0,0,0,.881-.141,1.1,1.1,0,0,0,.529-.721l.12-.417a1.006,1.006,0,0,0,.036-.167.468.468,0,0,0-.261-.544,3.361,3.361,0,0,0-.671-.138l-1.994-.243c-1.2-.141-1.707-.776-1.53-1.91A4.035,4.035,0,0,1,83,44.843l.17-.6A3.479,3.479,0,0,1,84.5,42.258a4.189,4.189,0,0,1,2.345-.511h1.523q2.55,0,2.258,1.831Z" transform="translate(332.266 140.978)" fill="#979a9c"/>
    <path id="Path_915" data-name="Path 915" d="M89.031,44.414c.044-.294.007-.5-.116-.605a.919.919,0,0,0-.634-.167H88a1.223,1.223,0,0,0-.9.312,2.378,2.378,0,0,0-.42.921l-.123.439h2.251l.1-.381a5.085,5.085,0,0,0,.123-.518m1.733.406c-.04.109-.076.254-.12.424l-.272.975H86.3l-.265.975a1.873,1.873,0,0,0-.065.29c-.076.468.178.7.758.7H87a1.351,1.351,0,0,0,.711-.145,1.289,1.289,0,0,0,.446-.58h1.834A3.012,3.012,0,0,1,88.8,49a3.589,3.589,0,0,1-1.849.421h-.9a2.509,2.509,0,0,1-1.588-.381,1.616,1.616,0,0,1-.341-1.552l.072-.46c.051-.16.087-.279.105-.341l.391-1.439a4.163,4.163,0,0,1,1.109-2.07,3.2,3.2,0,0,1,2.186-.653h.9a2.537,2.537,0,0,1,1.6.377,1.625,1.625,0,0,1,.341,1.552Z" transform="translate(338.76 143.013)" fill="#979a9c"/>
    <path id="Path_916" data-name="Path 916" d="M92.664,43.994c-.036.225-.109.529-.214.928l-.127.482H90.6l.076-.312a2.36,2.36,0,0,0,.083-.323.678.678,0,0,0-.072-.547.658.658,0,0,0-.522-.163.967.967,0,0,0-.863.5,4.6,4.6,0,0,0-.363.993l-1.055,3.774H86.037l1.874-6.71h1.794l-.236.845.094-.011a2.2,2.2,0,0,1,1.9-.924,1.3,1.3,0,0,1,1.055.337,1.505,1.505,0,0,1,.141,1.135" transform="translate(343.892 143.013)" fill="#979a9c"/>
    <path id="Path_917" data-name="Path 917" d="M94.806,42.547,91.039,49.26H88.089l.083-6.714h2l-.2,5.173,2.82-5.173Z" transform="translate(349.277 143.077)" fill="#979a9c"/>
    <path id="Path_918" data-name="Path 918" d="M94.3,41.78l-.4,1.45h-1.9l.4-1.45Zm-.8,2.857L91.653,51.27H89.764l1.831-6.634Z" transform="translate(353.676 141.065)" fill="#979a9c"/>
    <path id="Path_919" data-name="Path 919" d="M97.616,44.606a2.179,2.179,0,0,1-.08.33H95.662c.007-.043.022-.112.036-.207.083-.54-.145-.808-.7-.808h-.283a1.071,1.071,0,0,0-.95.424,4.143,4.143,0,0,0-.4,1.059l-.319,1.117a6.914,6.914,0,0,0-.185.754.665.665,0,0,0,.1.587.886.886,0,0,0,.609.156h.286a1.134,1.134,0,0,0,.859-.326,2.255,2.255,0,0,0,.41-.859H97a3.935,3.935,0,0,1-1.1,2.023,3.386,3.386,0,0,1-2.146.562h-.9a2.529,2.529,0,0,1-1.591-.381,1.625,1.625,0,0,1-.337-1.552l.072-.46c.047-.16.083-.279.105-.341l.391-1.436a4.161,4.161,0,0,1,1.109-2.074,3.2,3.2,0,0,1,2.186-.653h.9a2.083,2.083,0,0,1,1.551.54,1.727,1.727,0,0,1,.37,1.544" transform="translate(356.633 143.013)" fill="#979a9c"/>
    <path id="Path_920" data-name="Path 920" d="M97.838,44.414a.657.657,0,0,0-.112-.605.936.936,0,0,0-.638-.167h-.275a1.223,1.223,0,0,0-.9.312,2.432,2.432,0,0,0-.421.921l-.12.439H97.62l.094-.381a5.065,5.065,0,0,0,.123-.518m1.733.406c-.036.109-.076.254-.12.424l-.272.975H95.108l-.265.975a1.525,1.525,0,0,0-.065.29c-.076.468.178.7.758.7h.275a1.351,1.351,0,0,0,.71-.145,1.289,1.289,0,0,0,.446-.58h1.838A3.036,3.036,0,0,1,97.609,49a3.589,3.589,0,0,1-1.849.421h-.9a2.509,2.509,0,0,1-1.588-.381,1.616,1.616,0,0,1-.341-1.552l.072-.46c.051-.16.087-.279.105-.341l.392-1.439a4.109,4.109,0,0,1,1.113-2.07,3.185,3.185,0,0,1,2.182-.653h.9a2.537,2.537,0,0,1,1.6.377,1.616,1.616,0,0,1,.341,1.552Z" transform="translate(361.878 143.013)" fill="#979a9c"/>
    <path id="Path_921" data-name="Path 921" d="M104.821,44.2c-.033.2-.1.5-.21.913l-.022.051h-2.262l.014-.04a2.594,2.594,0,0,0,.087-.341.762.762,0,0,0-.265-.83,1.64,1.64,0,0,0-.917-.188,1.752,1.752,0,0,0-1.446.54,4.4,4.4,0,0,0-.609,1.5l-.457,1.617a9.806,9.806,0,0,0-.232.953c-.069.435,0,.732.214.888a1.67,1.67,0,0,0,.943.185,1.985,1.985,0,0,0,1.276-.352,2.492,2.492,0,0,0,.653-1.229H103.9a5.451,5.451,0,0,1-1.493,2.7,4.2,4.2,0,0,1-2.856.9h-.863a3.374,3.374,0,0,1-2.211-.551,2.291,2.291,0,0,1-.449-2.164,9.056,9.056,0,0,1,.257-1.138l.566-2.019a6.032,6.032,0,0,1,1.523-2.915,4.424,4.424,0,0,1,3.038-.943h.7a3.943,3.943,0,0,1,2.168.442,1.96,1.96,0,0,1,.54,2.015" transform="translate(369.947 140.978)" fill="#979a9c"/>
    <path id="Path_922" data-name="Path 922" d="M103.334,44.414c.044-.294.007-.5-.116-.605a.919.919,0,0,0-.634-.167h-.275a1.223,1.223,0,0,0-.9.312,2.326,2.326,0,0,0-.421.921l-.123.439h2.251l.1-.381a5.086,5.086,0,0,0,.123-.518m1.733.406c-.04.109-.076.254-.12.424l-.272.975H100.6l-.265.975a1.873,1.873,0,0,0-.065.29c-.076.468.178.7.761.7h.272a1.351,1.351,0,0,0,.71-.145,1.289,1.289,0,0,0,.446-.58H104.3A3.012,3.012,0,0,1,103.105,49a3.589,3.589,0,0,1-1.849.421h-.9a2.515,2.515,0,0,1-1.591-.381,1.616,1.616,0,0,1-.341-1.552l.072-.46c.051-.16.087-.279.105-.341L99,45.244a4.163,4.163,0,0,1,1.109-2.07,3.2,3.2,0,0,1,2.186-.653h.9a2.537,2.537,0,0,1,1.6.377,1.625,1.625,0,0,1,.341,1.552Z" transform="translate(376.305 143.013)" fill="#979a9c"/>
    <path id="Path_923" data-name="Path 923" d="M107.555,44.074a7.683,7.683,0,0,1-.2.848l-1.225,4.4h-1.863l1.109-3.915c.054-.21.1-.41.127-.587.054-.326,0-.54-.149-.642a1.332,1.332,0,0,0-.7-.12,1.135,1.135,0,0,0-.979.431,3.408,3.408,0,0,0-.428,1.058l-1.058,3.774h-1.845l1.878-6.714h1.791l-.243.877h.12a2.515,2.515,0,0,1,2.153-.964,1.906,1.906,0,0,1,1.265.312,1.332,1.332,0,0,1,.25,1.24" transform="translate(381.44 143.013)" fill="#979a9c"/>
    <path id="Path_924" data-name="Path 924" d="M108.775,43.518l-.384,1.359h-2.835l-.837,2.951a4.7,4.7,0,0,0-.109.5c-.04.254-.007.41.1.493a.916.916,0,0,0,.529.105,1,1,0,0,0,.7-.192,1.487,1.487,0,0,0,.344-.685l.12-.446h1.508l-.181.652a2.426,2.426,0,0,1-2.494,2.026H104.1q-1.718,0-1.494-1.436a5.422,5.422,0,0,1,.163-.674l.112-.381.812-2.918h-.765l.381-1.359h.776l.359-1.327h1.86l-.373,1.327Z" transform="translate(387.325 142.144)" fill="#979a9c"/>
    <path id="Path_925" data-name="Path 925" d="M109.272,44.414c.043-.294.007-.5-.116-.605a.919.919,0,0,0-.634-.167h-.275a1.223,1.223,0,0,0-.9.312,2.326,2.326,0,0,0-.42.921l-.123.439h2.251l.1-.381a5.105,5.105,0,0,0,.123-.518M111,44.82c-.04.109-.076.254-.12.424l-.272.975h-4.071l-.265.975a1.88,1.88,0,0,0-.065.29c-.076.468.178.7.758.7h.275a1.351,1.351,0,0,0,.711-.145,1.288,1.288,0,0,0,.446-.58h1.834A3.012,3.012,0,0,1,109.043,49a3.589,3.589,0,0,1-1.849.421h-.9a2.509,2.509,0,0,1-1.588-.381,1.616,1.616,0,0,1-.341-1.552l.073-.46c.051-.16.087-.279.105-.341l.391-1.439a4.163,4.163,0,0,1,1.109-2.07,3.2,3.2,0,0,1,2.186-.653h.9a2.537,2.537,0,0,1,1.6.377,1.625,1.625,0,0,1,.341,1.552Z" transform="translate(391.892 143.013)" fill="#979a9c"/>
    <path id="Path_926" data-name="Path 926" d="M112.9,43.994a9.155,9.155,0,0,1-.21.928l-.13.482h-1.722l.08-.312a2.236,2.236,0,0,0,.08-.323.664.664,0,0,0-.072-.547.649.649,0,0,0-.518-.163.973.973,0,0,0-.866.5,4.8,4.8,0,0,0-.362.993l-1.059,3.774h-1.845l1.878-6.71h1.794l-.236.845.094-.011a2.2,2.2,0,0,1,1.9-.924,1.3,1.3,0,0,1,1.059.337,1.491,1.491,0,0,1,.138,1.135" transform="translate(397.025 143.013)" fill="#979a9c"/>
    <path id="Path_927" data-name="Path 927" d="M75.739,55.489,69.446,81.857H85.512l-4,12.742H48.341L62.45,36.976H91.073l-1.131,4.93,28.812.033,7.17-26.865-74.2-.015s-5.282-.094-6.917,1.291c-.932.79-1.867,1.668-2.661,4.655-2.367,8.907-7.381,27.742-12.307,46.349-2.356,8.91-8.928,33.14-12.06,46.067-.16.656-.576,4.31.721,6,1.077,1.4,4.734,2.258,4.734,2.258h74.24l17.3-66.189Z" transform="translate(164.199 70.919)"/>
    <path id="Path_928" data-name="Path 928" d="M109.428,53a4.766,4.766,0,0,0,4.357-3.382l5.209-20.09a2.569,2.569,0,0,0-2.606-3.375H51.551L44.388,53Z" transform="translate(234.563 100.036)" fill="#e4001b"/>
    <path id="Path_929" data-name="Path 929" d="M106.75,63.982a4.78,4.78,0,0,0,4.372-3.379l5.256-20.184a2.558,2.558,0,0,0-2.588-3.382H48.644L41.456,63.982Z" transform="translate(226.867 128.615)" fill="#ffc50a"/>
    <path id="Path_930" data-name="Path 930" d="M119.014,15.057H54.489l-.265,1.011L50.643,29.474,47.326,41.907H112.05a4.762,4.762,0,0,0,4.357-3.382l5.206-20.086a2.57,2.57,0,0,0-2.6-3.382" transform="translate(242.275 70.917)"/>
    <path id="Path_931" data-name="Path 931" d="M94.1,22.235,78.62,22.206l-.678-.007a3.85,3.85,0,0,0-3.828,3.092L68.271,50.017l-.025.105A2.407,2.407,0,0,0,70.5,53.112h1l15.475.029H90.14L93.82,37.035l-10.3-.018-1.33,5.622,4.122.007L85.5,47.312l-9.175-.065,4.455-18.781,8.624-.054-.464,2.113,6.626.014,1.8-8.3Z" transform="translate(296.999 89.662)"/>
  </g>
</svg>
