<svg xmlns="http://www.w3.org/2000/svg" xmlns:xlink="http://www.w3.org/1999/xlink" width="390" height="95" viewBox="0 0 390 95">
  <defs>
    <clipPath id="clip-path">
      <rect id="Rectangle_6582" data-name="Rectangle 6582" width="390" height="95" fill="#fff"/>
    </clipPath>
  </defs>
  <g id="Mask_Group_65" data-name="Mask Group 65" clip-path="url(#clip-path)">
    <g id="Group_35438" data-name="Group 35438" transform="translate(9 29)">
      <path id="Path_37341" data-name="Path 37341" d="M133.726,24.716l2.708-11.84Q139.332.2,149.7.2a10.715,10.715,0,0,1,3.75.586,6.1,6.1,0,0,1,2.48,1.619,6.137,6.137,0,0,1,1.315,2.543,10.908,10.908,0,0,1,.323,3.277,21.882,21.882,0,0,1-.563,3.894l-.7,3.079h-7.112l.754-3.3q.222-.973.344-1.679a12.76,12.76,0,0,0,.16-1.609,4.87,4.87,0,0,0-.12-1.47,1.848,1.848,0,0,0-1.9-1.361q-3.139,0-4.347,5.285L140.548,26.5q-1.2,5.265,1.935,5.265a2.865,2.865,0,0,0,1.692-.536,4.1,4.1,0,0,0,1.262-1.52,14.039,14.039,0,0,0,.818-1.927q.315-.943.592-2.155l.84-3.675h7.072l-.691,3.02a28.639,28.639,0,0,1-1.2,3.774,18.31,18.31,0,0,1-1.781,3.357,12.614,12.614,0,0,1-2.447,2.752,10.83,10.83,0,0,1-3.264,1.808,12.239,12.239,0,0,1-4.169.685,10.586,10.586,0,0,1-3.971-.666,6.153,6.153,0,0,1-2.551-1.788,6.752,6.752,0,0,1-1.286-2.761,12.07,12.07,0,0,1-.275-3.447,24.286,24.286,0,0,1,.6-3.973" transform="translate(-72.37 -0.11)" fill="#fff"/>
      <path id="Path_37342" data-name="Path 37342" d="M176.334,37.484,192.24,1.725h6.4l-.47,35.759h-7.132l.279-7.649h-4.668l-3.14,7.649Zm11.826-12.1h3.7l1.227-13.27Z" transform="translate(-95.876 -0.938)" fill="#fff"/>
      <path id="Path_37343" data-name="Path 37343" d="M229.234,37.484l8.178-35.759h7.867a18.24,18.24,0,0,1,4.6.507,8.075,8.075,0,0,1,3.2,1.589,4.99,4.99,0,0,1,1.656,2.92,10.522,10.522,0,0,1-.212,4.4q-.254,1.113-.533,1.987a15.455,15.455,0,0,1-.825,2,10.406,10.406,0,0,1-1.239,1.987,9.824,9.824,0,0,1-1.819,1.7A11.087,11.087,0,0,1,247.59,20.2q.883,10.211,1.649,17.283H241.75l-.326-16.469h-1.192l-3.767,16.469ZM241.241,16.6h2.066a2.5,2.5,0,0,0,1.557-.556,4.386,4.386,0,0,0,1.187-1.41,13.24,13.24,0,0,0,.736-1.57,9.749,9.749,0,0,0,.629-2.662,10.537,10.537,0,0,0,.026-1.5A2.352,2.352,0,0,0,247,7.556a1.38,1.38,0,0,0-1.161-.527h-2.4Z" transform="translate(-124.639 -0.938)" fill="#fff"/>
      <path id="Path_37344" data-name="Path 37344" d="M295.937,37.484l8.178-35.759h8.661l-1.638,23.839L320.7,1.725h8.364l-8.178,35.759h-5.324l5.593-25.15q-1.482,3.874-4.962,12.575t-4.962,12.575h-5.4l1.4-25.309-5.947,25.309Z" transform="translate(-160.907 -0.938)" fill="#fff"/>
      <path id="Path_37345" data-name="Path 37345" d="M355.672,37.484,371.578,1.725h6.4l-.47,35.759h-7.132l.279-7.649h-4.668l-3.14,7.649Zm11.826-12.1h3.7l1.227-13.27Z" transform="translate(-193.386 -0.938)" fill="#fff"/>
      <path id="Path_37346" data-name="Path 37346" d="M408.572,37.484,416.75,1.725h7.231L415.8,37.484Z" transform="translate(-222.149 -0.938)" fill="#fff"/>
      <path id="Path_37347" data-name="Path 37347" d="M433.737,37.461,441.92,1.682h5.2L450.692,20.4l4.28-18.713h6l-8.183,35.778h-5.006l-3.288-19.846-4.539,19.846Z" transform="translate(-235.832 -0.915)" fill="#fff"/>
      <path id="Path_37348" data-name="Path 37348" d="M492.254,37.484,499.2,7.129h-5.245l1.236-5.4h17.621l-1.236,5.4h-5.145l-6.942,30.355Z" transform="translate(-267.649 -0.938)" fill="#fff"/>
      <path id="Path_37349" data-name="Path 37349" d="M524.647,37.484l8.178-35.759h14.919l-1.136,4.967H538.92l-2.226,9.734h5.443l-1.164,5.086h-5.443l-2.517,11.006H540.7l-1.135,4.967Z" transform="translate(-285.261 -0.938)" fill="#fff"/>
      <path id="Path_37350" data-name="Path 37350" d="M563.006,37.461l8.183-35.778h5.2L579.961,20.4l4.28-18.713h6l-8.183,35.778h-5.006l-3.289-19.846-4.539,19.846Z" transform="translate(-306.118 -0.915)" fill="#fff"/>
      <path id="Path_37351" data-name="Path 37351" d="M609.809,37.484,625.715,1.725h6.4l-.47,35.759H624.51l.278-7.649H620.12l-3.14,7.649Zm11.826-12.1h3.7l1.227-13.27Z" transform="translate(-331.566 -0.938)" fill="#fff"/>
      <path id="Path_37352" data-name="Path 37352" d="M662.71,37.461l8.183-35.778h5.2L679.665,20.4l4.28-18.713h6l-8.183,35.778h-5.006l-3.289-19.846-4.539,19.846Z" transform="translate(-360.329 -0.915)" fill="#fff"/>
      <path id="Path_37353" data-name="Path 37353" d="M718.02,24.716l2.708-11.84Q723.626.2,734,.2a10.712,10.712,0,0,1,3.75.586,6.1,6.1,0,0,1,2.48,1.619,6.133,6.133,0,0,1,1.315,2.543,10.9,10.9,0,0,1,.323,3.277,21.8,21.8,0,0,1-.563,3.894l-.7,3.079h-7.112l.754-3.3q.223-.973.344-1.679a12.75,12.75,0,0,0,.16-1.609,4.864,4.864,0,0,0-.121-1.47,1.848,1.848,0,0,0-1.9-1.361q-3.14,0-4.347,5.285L724.843,26.5q-1.2,5.265,1.935,5.265a2.863,2.863,0,0,0,1.692-.536,4.1,4.1,0,0,0,1.262-1.52,14.035,14.035,0,0,0,.818-1.927q.316-.943.592-2.155l.841-3.675h7.072l-.69,3.02a28.749,28.749,0,0,1-1.2,3.774,18.342,18.342,0,0,1-1.781,3.357,12.618,12.618,0,0,1-2.447,2.752,10.83,10.83,0,0,1-3.264,1.808,12.241,12.241,0,0,1-4.17.685,10.583,10.583,0,0,1-3.97-.666,6.152,6.152,0,0,1-2.551-1.788,6.766,6.766,0,0,1-1.286-2.761,12.071,12.071,0,0,1-.274-3.447,24.312,24.312,0,0,1,.6-3.973" transform="translate(-390.063 -0.11)" fill="#fff"/>
      <path id="Path_37354" data-name="Path 37354" d="M764.9,37.484l8.178-35.759h14.919l-1.136,4.967H779.17l-2.226,9.734h5.443l-1.163,5.086h-5.443l-2.517,11.006h7.688l-1.136,4.967Z" transform="translate(-415.89 -0.938)" fill="#fff"/>
      <path id="Path_37359" data-name="Path 37359" d="M20.394,14.123l-2.206,9.21H23.82l-1.4,4.451H10.786L15.734,7.657H25.77l-.4,1.722,10.1.011L37.991.006,11.971,0A5.323,5.323,0,0,0,9.545.453a2.666,2.666,0,0,0-.933,1.625C7.782,5.189,6.024,11.767,4.3,18.266,3.469,21.378,1.166,29.842.066,34.357a3.222,3.222,0,0,0,.254,2.1,3.886,3.886,0,0,0,1.659.789H28.015l6.067-23.119Z" transform="translate(0 -0.001)" fill="#fff"/>
      <path id="Path_37360" data-name="Path 37360" d="M97.487,40.157a1.669,1.669,0,0,0,1.528-1.181l1.827-7.017a.9.9,0,0,0-.914-1.179H77.191l-2.512,9.377Z" transform="translate(-40.604 -16.736)" fill="#ec2027"/>
      <path id="Path_37361" data-name="Path 37361" d="M89.407,70.4a1.675,1.675,0,0,0,1.533-1.18l1.844-7.049a.9.9,0,0,0-.908-1.182H69.031L66.51,70.4Z" transform="translate(-36.163 -33.163)" fill="#ffd125"/>
      <path id="Path_37362" data-name="Path 37362" d="M108,0H85.376l-.094.353L84.027,5.034,82.863,9.377h22.7A1.668,1.668,0,0,0,107.088,8.2l1.826-7.015A.9.9,0,0,0,108,0" transform="translate(-45.054)" fill="#fff"/>
    </g>
  </g>
</svg>
