<svg xmlns="http://www.w3.org/2000/svg" xmlns:xlink="http://www.w3.org/1999/xlink" width="390" height="95" viewBox="0 0 390 95">
  <defs>
    <clipPath id="clip-path">
      <rect id="Rectangle_6582" data-name="Rectangle 6582" width="390" height="95" fill="#fff"/>
    </clipPath>
  </defs>
  <g id="Mask_Group_59" data-name="Mask Group 59" clip-path="url(#clip-path)">
    <g id="Group_35441" data-name="Group 35441" transform="translate(28.982 28.147)">
      <path id="Path_37378" data-name="Path 37378" d="M20.394,520.591l-2.206,9.21H23.82l-1.4,4.451H10.786l4.948-20.126H25.77l-.4,1.722,10.1.011,2.514-9.384-26.02-.005a5.323,5.323,0,0,0-2.426.451,2.667,2.667,0,0,0-.933,1.625c-.83,3.111-2.588,9.689-4.316,16.188-.827,3.112-3.131,11.576-4.23,16.091a3.222,3.222,0,0,0,.254,2.1,3.887,3.887,0,0,0,1.659.789H28.015l6.067-23.119Z" transform="translate(0 -505.736)" fill="#fff"/>
      <path id="Path_37379" data-name="Path 37379" d="M97.487,546.625a1.669,1.669,0,0,0,1.528-1.181l1.827-7.017a.9.9,0,0,0-.914-1.179H77.191l-2.512,9.377Z" transform="translate(-40.604 -522.471)" fill="#ec2027"/>
      <path id="Path_37380" data-name="Path 37380" d="M89.407,576.872a1.675,1.675,0,0,0,1.533-1.18l1.844-7.049a.9.9,0,0,0-.908-1.181H69.031l-2.521,9.411Z" transform="translate(-36.163 -538.899)" fill="#ffd125"/>
      <path id="Path_37381" data-name="Path 37381" d="M108,506.468H85.376l-.094.353L84.027,511.5l-1.164,4.344h22.7a1.668,1.668,0,0,0,1.528-1.182l1.826-7.015a.9.9,0,0,0-.912-1.18" transform="translate(-45.054 -505.736)" fill="#fff"/>
      <path id="Path_37382" data-name="Path 37382" d="M134.345,530.441l3.311-12.31q3.545-13.177,14.709-13.177a11.725,11.725,0,0,1,4.018.609A6.309,6.309,0,0,1,159,507.246a6.058,6.058,0,0,1,1.331,2.644,10.9,10.9,0,0,1,.239,3.408,22.312,22.312,0,0,1-.736,4.048l-.861,3.2h-7.657l.922-3.428q.272-1.012.427-1.745a12.889,12.889,0,0,0,.225-1.673,4.825,4.825,0,0,0-.081-1.529,1.894,1.894,0,0,0-.65-1,2.057,2.057,0,0,0-1.354-.414q-3.379,0-4.857,5.494L141.63,532.3q-1.472,5.473,1.907,5.473a3.243,3.243,0,0,0,1.84-.557,4.513,4.513,0,0,0,1.409-1.58,14.744,14.744,0,0,0,.945-2q.371-.981.71-2.241l1.028-3.821h7.614l-.845,3.139a29.963,29.963,0,0,1-1.419,3.924,19.635,19.635,0,0,1-2.03,3.491,13.937,13.937,0,0,1-2.727,2.86,12.259,12.259,0,0,1-3.574,1.88,13.8,13.8,0,0,1-4.512.712,11.58,11.58,0,0,1-4.252-.692,6.341,6.341,0,0,1-2.687-1.859,6.67,6.67,0,0,1-1.292-2.871,12.039,12.039,0,0,1-.18-3.583,24.829,24.829,0,0,1,.779-4.131" transform="translate(-72.591 -504.912)" fill="#fff"/>
      <path id="Path_37383" data-name="Path 37383" d="M191.234,530.626l3.361-12.5q3.545-13.177,14.795-13.177,11.271,0,7.727,13.177l-3.311,12.311a27.29,27.29,0,0,1-1.45,4.12,18.64,18.64,0,0,1-2.129,3.584,14.359,14.359,0,0,1-2.871,2.88,12.578,12.578,0,0,1-3.722,1.87,15.109,15.109,0,0,1-4.632.682,11.955,11.955,0,0,1-4.247-.672,6.394,6.394,0,0,1-2.719-1.817,6.59,6.59,0,0,1-1.33-2.809,11.7,11.7,0,0,1-.224-3.542,23.143,23.143,0,0,1,.753-4.11m14.281,1.693,4.322-16.069q1.478-5.493-2.009-5.494a3.708,3.708,0,0,0-1.911.506,4.35,4.35,0,0,0-1.441,1.383,11.293,11.293,0,0,0-.948,1.735,13.7,13.7,0,0,0-.641,1.869l-4.322,16.069q-1.472,5.473,1.993,5.474,3.486,0,4.958-5.474" transform="translate(-103.545 -504.912)" fill="#fff"/>
      <path id="Path_37384" data-name="Path 37384" d="M245.208,543.69l10.006-37.2h5.6l3.215,19.456,5.234-19.456h6.459l-10.006,37.2h-5.39l-2.877-20.634L251.9,543.69Z" transform="translate(-133.325 -505.749)" fill="#fff"/>
      <path id="Path_37385" data-name="Path 37385" d="M305.015,532.168,313.3,530.7q-.305,1.136-.5,2a15.329,15.329,0,0,0-.284,1.889,5.862,5.862,0,0,0,.042,1.673,2.112,2.112,0,0,0,.582,1.1,1.653,1.653,0,0,0,1.217.444q2.31,0,3.077-2.85,1.051-3.9-2.467-7.766l-1.883-1.983q-.9-.929-1.423-1.548a14.563,14.563,0,0,1-1.165-1.673,7.689,7.689,0,0,1-.907-2.035,9.4,9.4,0,0,1-.262-2.365,11.244,11.244,0,0,1,.415-2.933,12.509,12.509,0,0,1,4.9-7.156,14.4,14.4,0,0,1,8.6-2.634,7.266,7.266,0,0,1,6.2,2.809,7.484,7.484,0,0,1,1.044,6.774l-.094.269c-.048.179-.1.385-.167.62l-8.331,1.074q.062-.227.224-.713t.246-.8a9.534,9.534,0,0,0,.277-1.425,6.7,6.7,0,0,0,.014-1.363,1.691,1.691,0,0,0-.468-1.084,1.535,1.535,0,0,0-1.132-.4,2.876,2.876,0,0,0-2.186.971,5.35,5.35,0,0,0-1.258,2.292,6,6,0,0,0-.209,2.169,4.532,4.532,0,0,0,.625,1.89,11.094,11.094,0,0,0,1.009,1.456q.486.578,1.33,1.415t1.188,1.229a21.778,21.778,0,0,1,2.072,2.633,14.445,14.445,0,0,1,1.392,2.778,9.644,9.644,0,0,1,.608,3.346,14.4,14.4,0,0,1-.542,3.882,11.2,11.2,0,0,1-4.607,6.393,13.14,13.14,0,0,1-7.685,2.489,9.618,9.618,0,0,1-4.493-.95,5.966,5.966,0,0,1-2.652-2.582,9.428,9.428,0,0,1-.985-3.614,14.546,14.546,0,0,1,.353-4.255" transform="translate(-165.632 -504.863)" fill="#fff"/>
      <path id="Path_37386" data-name="Path 37386" d="M359.749,529.9l6.284-23.359h7.785l-6.222,23.132q-.533,1.982-.753,2.881t-.482,2.189a6.2,6.2,0,0,0-.187,1.807,5.853,5.853,0,0,0,.288,1.116,1.2,1.2,0,0,0,.762.785,4.454,4.454,0,0,0,1.4.186,5.482,5.482,0,0,0,1.5-.186,2.538,2.538,0,0,0,1.182-.775,10.452,10.452,0,0,0,.885-1.1,7.877,7.877,0,0,0,.78-1.787q.428-1.27.685-2.148t.785-2.84l.033-.124,6.222-23.132h7.785L382.206,529.9q-.478,1.776-.974,3.222a31.581,31.581,0,0,1-1.212,2.995,17.7,17.7,0,0,1-1.549,2.737,14.948,14.948,0,0,1-1.98,2.272,11.011,11.011,0,0,1-2.5,1.787,13.417,13.417,0,0,1-3.112,1.115,16.652,16.652,0,0,1-3.811.413,13.906,13.906,0,0,1-3.589-.413,7.588,7.588,0,0,1-2.5-1.115,5.06,5.06,0,0,1-1.529-1.787,7.519,7.519,0,0,1-.758-2.272,12.041,12.041,0,0,1-.088-2.737,24.4,24.4,0,0,1,.389-2.995q.282-1.446.76-3.222" transform="translate(-194.958 -505.774)" fill="#fff"/>
      <path id="Path_37387" data-name="Path 37387" d="M413.812,543.715l10-37.177H431.6l-8.611,32.013h7.657l-1.389,5.164Z" transform="translate(-224.998 -505.774)" fill="#fff"/>
      <path id="Path_37388" data-name="Path 37388" d="M459.748,543.715l8.489-31.559H462.59l1.511-5.618h18.971l-1.511,5.618h-5.54l-8.489,31.559Z" transform="translate(-249.974 -505.774)" fill="#fff"/>
      <path id="Path_37389" data-name="Path 37389" d="M489.887,543.715l18.32-37.177h6.887l-1.7,37.177h-7.679l.556-7.951h-5.026l-3.636,7.951Zm13.136-12.578H507l1.764-13.8Z" transform="translate(-266.362 -505.774)" fill="#fff"/>
      <path id="Path_37390" data-name="Path 37390" d="M548.76,543.69l10.006-37.2h5.6l3.215,19.456,5.233-19.456h6.459l-10.006,37.2h-5.39L561,523.057l-5.55,20.634Z" transform="translate(-298.372 -505.749)" fill="#fff"/>
      <path id="Path_37391" data-name="Path 37391" d="M610.907,530.441l3.311-12.31q3.545-13.177,14.709-13.177a11.726,11.726,0,0,1,4.018.609,6.311,6.311,0,0,1,2.616,1.683,6.053,6.053,0,0,1,1.331,2.644,10.9,10.9,0,0,1,.239,3.408,22.319,22.319,0,0,1-.737,4.048l-.861,3.2h-7.657l.923-3.428q.272-1.012.427-1.745a12.942,12.942,0,0,0,.226-1.673,4.838,4.838,0,0,0-.081-1.529,1.894,1.894,0,0,0-.65-1,2.057,2.057,0,0,0-1.354-.414q-3.379,0-4.857,5.494L618.192,532.3q-1.472,5.473,1.907,5.473a3.243,3.243,0,0,0,1.84-.557,4.514,4.514,0,0,0,1.409-1.58,14.756,14.756,0,0,0,.945-2q.371-.981.71-2.241l1.028-3.821h7.614l-.845,3.139a29.954,29.954,0,0,1-1.419,3.924,19.637,19.637,0,0,1-2.029,3.491,13.934,13.934,0,0,1-2.727,2.86,12.25,12.25,0,0,1-3.574,1.88,13.8,13.8,0,0,1-4.512.712,11.577,11.577,0,0,1-4.252-.692,6.339,6.339,0,0,1-2.687-1.859,6.666,6.666,0,0,1-1.291-2.871,12.035,12.035,0,0,1-.181-3.583,24.881,24.881,0,0,1,.78-4.131" transform="translate(-331.708 -504.912)" fill="#fff"/>
      <path id="Path_37392" data-name="Path 37392" d="M673.4,543.716l3.306-12.289-.535-24.888H683.5l-.8,16.337q1.386-2.685,4.186-8.169t4.165-8.168h7.122l-13.945,24.888-3.306,12.289Z" transform="translate(-366.14 -505.774)" fill="#fff"/>
    </g>
  </g>
</svg>
