<svg xmlns="http://www.w3.org/2000/svg" xmlns:xlink="http://www.w3.org/1999/xlink" width="390" height="95" viewBox="0 0 390 95">
  <defs>
    <clipPath id="clip-path">
      <rect id="Rectangle_6582" data-name="Rectangle 6582" width="390" height="95" fill="#fff"/>
    </clipPath>
  </defs>
  <g id="Mask_Group_62" data-name="Mask Group 62" clip-path="url(#clip-path)">
    <g id="Group_35402" data-name="Group 35402" transform="translate(42.919 28.189)">
      <path id="Path_37408" data-name="Path 37408" d="M97.487,854.588a1.669,1.669,0,0,0,1.528-1.181l1.827-7.017a.9.9,0,0,0-.914-1.179H77.191l-2.512,9.377Z" transform="translate(-40.604 -830.477)" fill="#ec2027"/>
      <path id="Path_37409" data-name="Path 37409" d="M89.407,884.835a1.675,1.675,0,0,0,1.533-1.181l1.844-7.049a.9.9,0,0,0-.908-1.181H69.031l-2.521,9.411Z" transform="translate(-36.163 -846.905)" fill="#ffd125"/>
      <g id="Group_35400" data-name="Group 35400" transform="translate(0)">
        <path id="Path_37407" data-name="Path 37407" d="M20.394,828.553l-2.206,9.21H23.82l-1.4,4.451H10.786l4.948-20.126H25.77l-.4,1.722,10.1.011,2.514-9.384-26.02-.005a5.327,5.327,0,0,0-2.426.451,2.666,2.666,0,0,0-.933,1.625C7.782,819.62,6.024,826.2,4.3,832.7c-.827,3.112-3.131,11.576-4.23,16.09a3.222,3.222,0,0,0,.254,2.1,3.888,3.888,0,0,0,1.659.789H28.015l6.067-23.119Z" transform="translate(0 -813.741)" fill="#fff"/>
        <path id="Path_37410" data-name="Path 37410" d="M108,814.432H85.376l-.094.353-1.255,4.681-1.164,4.344h22.7a1.668,1.668,0,0,0,1.528-1.182l1.826-7.015a.9.9,0,0,0-.912-1.18" transform="translate(-45.054 -813.741)" fill="#fff"/>
        <path id="Path_37411" data-name="Path 37411" d="M129.1,851.678l10-37.176h16.062l-1.389,5.164H145.5l-2.722,10.12h5.86l-1.423,5.287h-5.86l-3.078,11.442h8.277l-1.389,5.163Z" transform="translate(-70.196 -813.779)" fill="#fff"/>
        <path id="Path_37412" data-name="Path 37412" d="M172.319,851.654l10.006-37.2h5.6l3.215,19.455,5.233-19.455h6.459l-10.006,37.2h-5.39l-2.877-20.633-5.55,20.633Z" transform="translate(-93.693 -813.755)" fill="#fff"/>
        <path id="Path_37413" data-name="Path 37413" d="M234.21,839.189l3.522-13.094q3.545-13.177,14.9-13.177a12.257,12.257,0,0,1,4.1.609,6.465,6.465,0,0,1,2.681,1.683,6.035,6.035,0,0,1,1.363,2.643,10.865,10.865,0,0,1,.26,3.408,21.635,21.635,0,0,1-.725,4.048l-.59,2.189h-7.442l.7-2.6q.261-.971.405-1.7a10.21,10.21,0,0,0,.171-1.631,4.061,4.061,0,0,0-.181-1.477,1.975,1.975,0,0,0-.787-.97,2.661,2.661,0,0,0-1.52-.392q-3.572,0-5.049,5.494l-4.317,16.048q-1.472,5.473,2.1,5.473,3.55,0,5.078-5.68l.8-2.974h-4.406l1.45-5.391h12.191l-5.145,19.125h-5.347l-.284-2.6a10.435,10.435,0,0,1-3.449,2.406,9.8,9.8,0,0,1-3.99.919,8.087,8.087,0,0,1-3.578-.733,5.478,5.478,0,0,1-2.28-1.942,7.923,7.923,0,0,1-1.085-2.84,12.41,12.41,0,0,1-.173-3.335,19.494,19.494,0,0,1,.621-3.5" transform="translate(-126.984 -812.918)" fill="#fff"/>
        <path id="Path_37414" data-name="Path 37414" d="M289.175,851.678l10-37.176h7.785l-10,37.176Z" transform="translate(-157.23 -813.779)" fill="#fff"/>
        <path id="Path_37415" data-name="Path 37415" d="M318.189,851.654l10.006-37.2h5.6l3.215,19.455,5.233-19.455h6.459l-10.006,37.2h-5.39l-2.877-20.633-5.55,20.633Z" transform="translate(-173.006 -813.755)" fill="#fff"/>
        <path id="Path_37416" data-name="Path 37416" d="M375.093,851.678l10-37.176h16.062l-1.389,5.164h-8.277l-2.722,10.12h5.86l-1.422,5.287h-5.86l-3.078,11.442h8.277l-1.389,5.163Z" transform="translate(-203.946 -813.779)" fill="#fff"/>
        <path id="Path_37417" data-name="Path 37417" d="M418.31,851.678l10-37.176h16.062l-1.389,5.164h-8.277l-2.722,10.12h5.86l-1.423,5.287h-5.86l-3.078,11.442h8.277l-1.389,5.163Z" transform="translate(-227.444 -813.779)" fill="#fff"/>
        <path id="Path_37418" data-name="Path 37418" d="M461.528,851.678l10-37.176H480a20.089,20.089,0,0,1,4.938.526,8.495,8.495,0,0,1,3.395,1.653,4.947,4.947,0,0,1,1.686,3.036,10.649,10.649,0,0,1-.375,4.576q-.311,1.156-.641,2.065a16.41,16.41,0,0,1-.954,2.076,11.278,11.278,0,0,1-1.4,2.065,10.918,10.918,0,0,1-2.015,1.766,12.536,12.536,0,0,1-2.763,1.445q.609,10.616,1.2,17.969H475l.2-17.122h-1.283l-4.606,17.122Zm13.624-21.707h2.224a2.838,2.838,0,0,0,1.7-.578,4.84,4.84,0,0,0,1.325-1.466,14.076,14.076,0,0,0,.846-1.632,10.038,10.038,0,0,0,.766-2.768,10.457,10.457,0,0,0,.077-1.559,2.313,2.313,0,0,0-.435-1.4,1.456,1.456,0,0,0-1.232-.547h-2.588Z" transform="translate(-250.942 -813.779)" fill="#fff"/>
        <path id="Path_37419" data-name="Path 37419" d="M516.042,851.678l10-37.176h7.786l-10,37.176Z" transform="translate(-280.582 -813.779)" fill="#fff"/>
        <path id="Path_37420" data-name="Path 37420" d="M545.055,851.654l10.006-37.2h5.6l3.215,19.455,5.233-19.455h6.459l-10.006,37.2h-5.39L557.3,831.021l-5.55,20.633Z" transform="translate(-296.358 -813.755)" fill="#fff"/>
        <path id="Path_37421" data-name="Path 37421" d="M606.946,839.189l3.522-13.094q3.544-13.177,14.9-13.177a12.253,12.253,0,0,1,4.1.609,6.465,6.465,0,0,1,2.681,1.683,6.023,6.023,0,0,1,1.363,2.643,10.87,10.87,0,0,1,.26,3.408,21.664,21.664,0,0,1-.726,4.048l-.589,2.189h-7.443l.7-2.6q.261-.971.4-1.7a10.134,10.134,0,0,0,.172-1.631,4.064,4.064,0,0,0-.18-1.477,1.974,1.974,0,0,0-.787-.97,2.661,2.661,0,0,0-1.52-.392q-3.572,0-5.049,5.494l-4.317,16.048q-1.472,5.473,2.1,5.473,3.551,0,5.078-5.68l.8-2.974h-4.406l1.45-5.391h12.191l-5.144,19.125h-5.347l-.284-2.6a10.43,10.43,0,0,1-3.449,2.406,9.8,9.8,0,0,1-3.991.919,8.085,8.085,0,0,1-3.577-.733,5.474,5.474,0,0,1-2.28-1.942,7.939,7.939,0,0,1-1.085-2.84,12.382,12.382,0,0,1-.173-3.335,19.544,19.544,0,0,1,.62-3.5" transform="translate(-329.649 -812.918)" fill="#fff"/>
      </g>
    </g>
  </g>
</svg>
