<svg xmlns="http://www.w3.org/2000/svg" width="311.634" height="59.643" viewBox="0 0 311.634 59.643">
  <g id="Group_35333" data-name="Group 35333" transform="translate(-25 11263.211)">
    <g id="Group_35223" data-name="Group 35223" transform="translate(25 -11263.211)">
      <path id="Path_927" data-name="Path 927" d="M50.633,37.674l-3.576,14.75h9.13l-2.274,7.128H35.063L43.08,27.318H59.347L58.7,30.076l16.373.018,4.075-15.028-42.169-.008s-3-.053-3.931.722a4.271,4.271,0,0,0-1.512,2.6c-1.345,4.982-4.194,15.518-6.994,25.927C23.207,49.3,19.472,62.849,17.692,70.08c-.091.367-.328,2.411.41,3.356.612.783,2.69,1.263,2.69,1.263h42.19l9.833-37.025Z" transform="translate(-17.583 -15.056)" fill="#fff"/>
      <path id="Path_928" data-name="Path 928" d="M81.35,41.168a2.7,2.7,0,0,0,2.476-1.892l2.96-11.238A1.443,1.443,0,0,0,85.3,26.15H48.459L44.388,41.168Z" transform="translate(10.833 -3.657)" fill="#e4001b"/>
      <path id="Path_929" data-name="Path 929" d="M78.562,52.109a2.71,2.71,0,0,0,2.484-1.89l2.987-11.291a1.436,1.436,0,0,0-1.471-1.892H45.541L41.456,52.109Z" transform="translate(7.723 7.532)" fill="#ffc50a"/>
      <path id="Path_930" data-name="Path 930" d="M88.066,15.057H51.4l-.15.566-2.035,7.5-1.885,6.955H84.108a2.7,2.7,0,0,0,2.476-1.892l2.958-11.236a1.443,1.443,0,0,0-1.477-1.892" transform="translate(13.948 -15.057)" fill="#fff"/>
    </g>
    <path id="Path_37440" data-name="Path 37440" d="M39.223-23.424H24.278l-1.4,7.015h6.4L27.633-7.747a11.69,11.69,0,0,1-4.514.732c-6.466,0-10.553-3.477-10.553-10.37a16.77,16.77,0,0,1,5.978-13.3,16.774,16.774,0,0,1,10.431-3.294A22.087,22.087,0,0,1,37.7-32.33l2.623-7.381c-1.586-.793-5.551-1.83-10.858-1.83-7.137,0-13.542,2.135-18.178,5.978A24.2,24.2,0,0,0,2.928-16.775c0,5.246,1.891,9.821,5.185,12.688C11.468-1.037,16.165.427,21.777.427a43.875,43.875,0,0,0,13.3-2.318ZM42.273,0h8.662l3.05-16.226h2.684c3.477,0,5.185,1.525,5.612,6.527A61.532,61.532,0,0,0,63.44,0h9.028c-.732-1.708-1.037-7.076-1.586-11.712-.366-3.721-1.464-6.405-3.9-7.5V-19.4c5.307-1.708,9.333-5.551,9.333-11.651a8.889,8.889,0,0,0-4.575-7.991c-2.867-1.83-6.893-2.379-10.8-2.379a50.82,50.82,0,0,0-10.98,1.037ZM57.462-34.221a14.355,14.355,0,0,1,3.416-.3c3.538,0,6.283,1.464,6.283,4.819,0,4.026-3.477,6.893-8.235,6.893h-3.6Zm44.652-7.564a21.539,21.539,0,0,0-15.006,5.856c-4.819,4.636-7.564,12.017-7.564,19.459C79.544-6.893,85.522.671,96.2.671a21.339,21.339,0,0,0,15.189-5.917c4.7-4.575,7.32-11.9,7.32-19.4C118.706-34.465,112.972-41.785,102.114-41.785Zm-1.037,7.32c6.466,0,8.3,4.941,8.3,10.065,0,4.758-1.769,11.529-5,14.762a9.666,9.666,0,0,1-6.893,2.989c-5.978,0-8.6-4.331-8.6-10.126,0-4.941,1.83-11.346,5.124-14.579A9.747,9.747,0,0,1,101.077-34.465ZM128.4-41.114l-4.331,22.936a32.2,32.2,0,0,0-.61,5.734c0,8.723,5.185,13.176,13.664,13.115,11.224,0,16.653-5.978,19.032-18.422l4.453-23.363h-8.784l-4.514,23.729C145.851-9.76,142.862-6.71,138.226-6.71c-3.9,0-5.978-2.562-5.978-5.917a22.981,22.981,0,0,1,.488-4.819l4.453-23.668ZM160.735,0h8.6l2.806-14.823c.915.061,2.135.244,3.6.244,5,0,9.821-1.22,13.176-3.843a14.277,14.277,0,0,0,5.551-11.529,10.026,10.026,0,0,0-4.453-8.784c-2.989-2.074-7.2-2.684-10.919-2.684a48.826,48.826,0,0,0-10.736,1.037ZM175.8-34.16a22.824,22.824,0,0,1,3.6-.244c3.355,0,6.222,1.281,6.222,5.185,0,4.148-3.477,7.5-8.723,7.5a16.345,16.345,0,0,1-3.416-.305Z" transform="translate(141.666 -11211.227)" fill="#fff" stroke="#fff" stroke-width="1"/>
  </g>
</svg>
