<svg xmlns="http://www.w3.org/2000/svg" xmlns:xlink="http://www.w3.org/1999/xlink" width="390" height="95" viewBox="0 0 390 95">
  <defs>
    <clipPath id="clip-path">
      <rect id="Rectangle_6582" data-name="Rectangle 6582" width="390" height="95" fill="#fff"/>
    </clipPath>
  </defs>
  <g id="Mask_Group_61" data-name="Mask Group 61" clip-path="url(#clip-path)">
    <g id="Group_35440" data-name="Group 35440" transform="translate(86.452 28.147)">
      <path id="Path_37368" data-name="Path 37368" d="M20.394,366.609l-2.206,9.21H23.82l-1.4,4.45H10.786l4.948-20.126H25.77l-.4,1.722,10.1.011,2.514-9.384-26.02-.005a5.323,5.323,0,0,0-2.426.451,2.666,2.666,0,0,0-.933,1.625c-.83,3.111-2.588,9.69-4.316,16.188-.827,3.112-3.131,11.576-4.23,16.09a3.222,3.222,0,0,0,.254,2.1,3.886,3.886,0,0,0,1.659.789H28.015l6.067-23.119Z" transform="translate(0 -351.754)" fill="#fff"/>
      <path id="Path_37369" data-name="Path 37369" d="M97.487,392.643a1.669,1.669,0,0,0,1.528-1.181l1.827-7.017a.9.9,0,0,0-.914-1.179H77.191l-2.512,9.377Z" transform="translate(-40.604 -368.489)" fill="#ec2027"/>
      <path id="Path_37370" data-name="Path 37370" d="M89.407,422.89a1.674,1.674,0,0,0,1.533-1.18l1.844-7.049a.9.9,0,0,0-.908-1.181H69.031L66.51,422.89Z" transform="translate(-36.163 -384.917)" fill="#ffd125"/>
      <path id="Path_37371" data-name="Path 37371" d="M108,352.486H85.376l-.094.353-1.255,4.681-1.164,4.344h22.7a1.668,1.668,0,0,0,1.528-1.182l1.826-7.015a.9.9,0,0,0-.912-1.18" transform="translate(-45.054 -351.754)" fill="#fff"/>
      <path id="Path_37372" data-name="Path 37372" d="M129.1,389.734l10-37.176h9.325l-2.56,24.784,11.094-24.784h9l-10,37.176h-5.732l6.862-26.147q-1.725,4.028-5.762,13.074t-5.762,13.073h-5.818l2.351-26.313-7.249,26.313Z" transform="translate(-70.196 -351.792)" fill="#fff"/>
      <path id="Path_37373" data-name="Path 37373" d="M205.109,376.645l3.361-12.5q3.545-13.177,14.795-13.177,11.271,0,7.727,13.177l-3.311,12.31a27.344,27.344,0,0,1-1.45,4.121,18.618,18.618,0,0,1-2.129,3.583,14.355,14.355,0,0,1-2.871,2.881,12.582,12.582,0,0,1-3.722,1.869,15.115,15.115,0,0,1-4.632.681,11.978,11.978,0,0,1-4.247-.671,6.4,6.4,0,0,1-2.719-1.818,6.58,6.58,0,0,1-1.33-2.809,11.7,11.7,0,0,1-.224-3.542,23.137,23.137,0,0,1,.753-4.11m14.281,1.694,4.322-16.069q1.478-5.494-2.009-5.494a3.714,3.714,0,0,0-1.911.506,4.347,4.347,0,0,0-1.441,1.384,11.266,11.266,0,0,0-.948,1.735,13.686,13.686,0,0,0-.642,1.87l-4.322,16.069q-1.472,5.473,1.993,5.474,3.486,0,4.958-5.474" transform="translate(-111.089 -350.93)" fill="#fff"/>
      <path id="Path_37374" data-name="Path 37374" d="M266.208,389.733l8.489-31.559H269.05l1.511-5.618h18.971l-1.511,5.618h-5.54l-8.489,31.559Z" transform="translate(-144.743 -351.792)" fill="#fff"/>
      <path id="Path_37375" data-name="Path 37375" d="M307.339,376.645l3.361-12.5q3.545-13.177,14.795-13.177,11.271,0,7.727,13.177l-3.311,12.31a27.334,27.334,0,0,1-1.45,4.121,18.621,18.621,0,0,1-2.129,3.583,14.356,14.356,0,0,1-2.871,2.881,12.581,12.581,0,0,1-3.722,1.869,15.115,15.115,0,0,1-4.632.681,11.977,11.977,0,0,1-4.247-.671,6.4,6.4,0,0,1-2.719-1.818,6.58,6.58,0,0,1-1.33-2.809,11.7,11.7,0,0,1-.224-3.542,23.135,23.135,0,0,1,.753-4.11m14.281,1.694,4.322-16.069q1.478-5.494-2.009-5.494a3.714,3.714,0,0,0-1.911.506,4.348,4.348,0,0,0-1.441,1.384,11.27,11.27,0,0,0-.948,1.735,13.663,13.663,0,0,0-.642,1.87l-4.322,16.069q-1.472,5.473,1.993,5.474,3.487,0,4.958-5.474" transform="translate(-166.673 -350.93)" fill="#fff"/>
      <path id="Path_37376" data-name="Path 37376" d="M361.314,389.734l10-37.177h8.47a20.085,20.085,0,0,1,4.938.526,8.5,8.5,0,0,1,3.395,1.653,4.947,4.947,0,0,1,1.686,3.036,10.642,10.642,0,0,1-.375,4.575q-.311,1.157-.641,2.066a16.347,16.347,0,0,1-.954,2.076,11.257,11.257,0,0,1-1.4,2.065,10.972,10.972,0,0,1-2.015,1.766,12.542,12.542,0,0,1-2.763,1.446q.61,10.617,1.2,17.969h-8.063l.2-17.122H373.7L369.1,389.734Zm13.624-21.707h2.224a2.837,2.837,0,0,0,1.7-.578,4.842,4.842,0,0,0,1.325-1.466,14.135,14.135,0,0,0,.845-1.632,10.072,10.072,0,0,0,.843-4.327,2.316,2.316,0,0,0-.435-1.4,1.459,1.459,0,0,0-1.232-.547h-2.588Z" transform="translate(-196.454 -351.792)" fill="#fff"/>
      <path id="Path_37377" data-name="Path 37377" d="M418.73,378.185l8.286-1.467q-.305,1.136-.5,2a15.4,15.4,0,0,0-.284,1.89,5.845,5.845,0,0,0,.042,1.673,2.11,2.11,0,0,0,.582,1.095,1.652,1.652,0,0,0,1.217.444q2.31,0,3.077-2.85,1.051-3.9-2.467-7.766l-1.884-1.982q-.9-.929-1.423-1.549A14.562,14.562,0,0,1,424.217,368a7.679,7.679,0,0,1-.907-2.035,9.365,9.365,0,0,1-.262-2.365,11.237,11.237,0,0,1,.415-2.933,12.51,12.51,0,0,1,4.9-7.156,14.4,14.4,0,0,1,8.6-2.634,7.266,7.266,0,0,1,6.2,2.809,7.483,7.483,0,0,1,1.044,6.775l-.094.268q-.072.269-.166.62l-8.331,1.074q.062-.227.224-.713t.246-.795a9.549,9.549,0,0,0,.277-1.425,6.717,6.717,0,0,0,.014-1.363,1.692,1.692,0,0,0-.468-1.085,1.537,1.537,0,0,0-1.133-.4,2.877,2.877,0,0,0-2.186.971,5.347,5.347,0,0,0-1.258,2.292,6,6,0,0,0-.209,2.169,4.531,4.531,0,0,0,.625,1.89,11.14,11.14,0,0,0,1.009,1.456q.486.578,1.331,1.414t1.188,1.229a21.68,21.68,0,0,1,2.072,2.633,14.411,14.411,0,0,1,1.392,2.778,9.647,9.647,0,0,1,.608,3.346,14.385,14.385,0,0,1-.542,3.883,11.206,11.206,0,0,1-4.606,6.392,13.147,13.147,0,0,1-7.685,2.489,9.629,9.629,0,0,1-4.493-.95,5.972,5.972,0,0,1-2.652-2.582,9.424,9.424,0,0,1-.985-3.615,14.555,14.555,0,0,1,.353-4.255" transform="translate(-227.461 -350.881)" fill="#fff"/>
    </g>
  </g>
</svg>
