<svg xmlns="http://www.w3.org/2000/svg" xmlns:xlink="http://www.w3.org/1999/xlink" width="390" height="95" viewBox="0 0 390 95">
  <defs>
    <clipPath id="clip-path">
      <rect id="Rectangle_6582" data-name="Rectangle 6582" width="390" height="95" fill="#fff"/>
    </clipPath>
  </defs>
  <g id="Mask_Group_63" data-name="Mask Group 63" clip-path="url(#clip-path)">
    <g id="Group_35439" data-name="Group 35439" transform="translate(106.513 28.147)">
      <path id="Path_37355" data-name="Path 37355" d="M20.394,212.627l-2.206,9.21H23.82l-1.4,4.451H10.786l4.948-20.126H25.77l-.4,1.722,10.1.011,2.514-9.384-26.02-.005a5.324,5.324,0,0,0-2.426.451,2.666,2.666,0,0,0-.933,1.625c-.83,3.111-2.588,9.689-4.316,16.188-.827,3.112-3.131,11.576-4.23,16.091a3.222,3.222,0,0,0,.254,2.1,3.886,3.886,0,0,0,1.659.789H28.015l6.067-23.119Z" transform="translate(0 -197.773)" fill="#fff"/>
      <path id="Path_37356" data-name="Path 37356" d="M97.487,238.661a1.669,1.669,0,0,0,1.528-1.181l1.827-7.017a.9.9,0,0,0-.914-1.179H77.191l-2.512,9.377Z" transform="translate(-40.604 -214.508)" fill="#ec2027"/>
      <path id="Path_37357" data-name="Path 37357" d="M89.407,268.908a1.675,1.675,0,0,0,1.533-1.18l1.844-7.049a.9.9,0,0,0-.908-1.182H69.031l-2.521,9.411Z" transform="translate(-36.163 -230.935)" fill="#ffd125"/>
      <path id="Path_37358" data-name="Path 37358" d="M108,198.505H85.376l-.094.353-1.255,4.681-1.164,4.344h22.7a1.668,1.668,0,0,0,1.528-1.182l1.826-7.015a.9.9,0,0,0-.912-1.18" transform="translate(-45.054 -197.773)" fill="#fff"/>
      <path id="Path_37363" data-name="Path 37363" d="M129.1,235.751l10-37.177h9.3q5.026,0,6.587,2.706t.183,7.828a20.374,20.374,0,0,1-1.68,4.378,12.834,12.834,0,0,1-2.226,3.068,9.736,9.736,0,0,1-2.832,1.941,13.6,13.6,0,0,1-3.336,1.033,24.257,24.257,0,0,1-3.893.32l-4.278,15.9Zm13.555-21.212a7.938,7.938,0,0,0,1.121-.072q.5-.073.889-.166a2.074,2.074,0,0,0,.733-.34q.345-.248.576-.434a2.145,2.145,0,0,0,.474-.609q.242-.424.379-.692a6.545,6.545,0,0,0,.33-.867q.193-.6.29-.96l.3-1.125c.037-.138.065-.241.083-.31q.217-.8.317-1.219t.209-1.053a3.178,3.178,0,0,0,.055-.96,3.962,3.962,0,0,0-.209-.733,1.1,1.1,0,0,0-.492-.6,3.892,3.892,0,0,0-.884-.33,5.25,5.25,0,0,0-1.32-.145Z" transform="translate(-70.195 -197.81)" fill="#fff"/>
      <path id="Path_37364" data-name="Path 37364" d="M169.694,235.752l18.32-37.177H194.9l-1.7,37.177h-7.679l.556-7.952h-5.026l-3.636,7.952Zm13.136-12.578h3.978l1.764-13.8Z" transform="translate(-92.266 -197.811)" fill="#fff"/>
      <path id="Path_37365" data-name="Path 37365" d="M228.568,235.752l10-37.177h8.469a20.083,20.083,0,0,1,4.938.527,8.494,8.494,0,0,1,3.395,1.653,4.946,4.946,0,0,1,1.686,3.036,10.64,10.64,0,0,1-.375,4.575q-.311,1.157-.641,2.066a16.414,16.414,0,0,1-.954,2.076,11.251,11.251,0,0,1-1.4,2.065,10.94,10.94,0,0,1-2.015,1.766,12.537,12.537,0,0,1-2.763,1.446q.609,10.617,1.2,17.969h-8.063l.2-17.122h-1.283l-4.606,17.122Zm13.624-21.707h2.224a2.838,2.838,0,0,0,1.7-.578A4.836,4.836,0,0,0,247.437,212a14.06,14.06,0,0,0,.846-1.632,10.039,10.039,0,0,0,.766-2.768,10.477,10.477,0,0,0,.077-1.56,2.313,2.313,0,0,0-.435-1.4,1.457,1.457,0,0,0-1.232-.547H244.87Z" transform="translate(-124.277 -197.811)" fill="#fff"/>
      <path id="Path_37366" data-name="Path 37366" d="M291.1,235.752l8.489-31.559h-5.646l1.511-5.618h18.971l-1.511,5.618h-5.54l-8.489,31.559Z" transform="translate(-158.275 -197.811)" fill="#fff"/>
      <path id="Path_37367" data-name="Path 37367" d="M330.794,224.2l8.286-1.466q-.305,1.136-.5,2a15.348,15.348,0,0,0-.284,1.89,5.862,5.862,0,0,0,.042,1.673,2.109,2.109,0,0,0,.582,1.1,1.651,1.651,0,0,0,1.217.444q2.31,0,3.077-2.85,1.051-3.9-2.467-7.766l-1.884-1.983q-.9-.929-1.423-1.549a14.569,14.569,0,0,1-1.165-1.673,7.683,7.683,0,0,1-.907-2.035,9.387,9.387,0,0,1-.262-2.365,11.238,11.238,0,0,1,.415-2.933,12.509,12.509,0,0,1,4.9-7.156,14.4,14.4,0,0,1,8.6-2.634,7.266,7.266,0,0,1,6.2,2.809,7.484,7.484,0,0,1,1.044,6.775l-.094.268c-.048.179-.1.386-.167.62l-8.331,1.074q.062-.227.224-.713t.246-.795a9.552,9.552,0,0,0,.276-1.425,6.7,6.7,0,0,0,.014-1.363,1.692,1.692,0,0,0-.468-1.085,1.536,1.536,0,0,0-1.132-.4,2.877,2.877,0,0,0-2.186.971,5.349,5.349,0,0,0-1.258,2.292,6,6,0,0,0-.209,2.169,4.53,4.53,0,0,0,.625,1.89,11.124,11.124,0,0,0,1.009,1.456q.486.578,1.33,1.414t1.188,1.229a21.746,21.746,0,0,1,2.072,2.633A14.443,14.443,0,0,1,350.8,219.5a9.646,9.646,0,0,1,.608,3.346,14.408,14.408,0,0,1-.542,3.883,11.207,11.207,0,0,1-4.607,6.392,13.143,13.143,0,0,1-7.685,2.489,9.626,9.626,0,0,1-4.493-.95,5.97,5.97,0,0,1-2.652-2.582,9.434,9.434,0,0,1-.985-3.615,14.55,14.55,0,0,1,.353-4.255" transform="translate(-179.648 -196.9)" fill="#fff"/>
    </g>
  </g>
</svg>
