<svg xmlns="http://www.w3.org/2000/svg" xmlns:xlink="http://www.w3.org/1999/xlink" width="390" height="95" viewBox="0 0 390 95">
  <defs>
    <clipPath id="clip-path">
      <rect id="Rectangle_6582" data-name="Rectangle 6582" width="390" height="95" fill="#fff"/>
    </clipPath>
  </defs>
  <g id="Mask_Group_64" data-name="Mask Group 64" clip-path="url(#clip-path)">
    <g id="Group_35401" data-name="Group 35401" transform="translate(41.248 28.189)">
      <path id="Path_37394" data-name="Path 37394" d="M97.487,700.606a1.669,1.669,0,0,0,1.528-1.181l1.827-7.017a.9.9,0,0,0-.914-1.179H77.191l-2.512,9.377Z" transform="translate(-40.604 -676.494)" fill="#ec2027"/>
      <path id="Path_37395" data-name="Path 37395" d="M89.407,730.853a1.675,1.675,0,0,0,1.533-1.18l1.844-7.049a.9.9,0,0,0-.908-1.181H69.031l-2.521,9.411Z" transform="translate(-36.163 -692.922)" fill="#ffd125"/>
      <g id="Group_35399" data-name="Group 35399" transform="translate(0 0)">
        <path id="Path_37393" data-name="Path 37393" d="M20.394,674.572l-2.206,9.21H23.82l-1.4,4.45H10.786l4.948-20.126H25.77l-.4,1.722,10.1.011,2.514-9.383-26.02-.005a5.324,5.324,0,0,0-2.426.451,2.665,2.665,0,0,0-.933,1.625c-.83,3.111-2.588,9.689-4.316,16.188-.827,3.112-3.131,11.576-4.23,16.09a3.222,3.222,0,0,0,.254,2.1,3.886,3.886,0,0,0,1.659.789H28.015l6.067-23.119Z" transform="translate(0 -659.759)" fill="#fff"/>
        <path id="Path_37396" data-name="Path 37396" d="M108,660.45H85.376l-.094.353-1.255,4.681-1.164,4.344h22.7a1.668,1.668,0,0,0,1.528-1.182l1.826-7.015a.9.9,0,0,0-.912-1.18" transform="translate(-45.054 -659.759)" fill="#fff"/>
        <path id="Path_37397" data-name="Path 37397" d="M137.118,697.7l8.489-31.559H139.96l1.511-5.618h18.971l-1.511,5.618h-5.54L144.9,697.7Z" transform="translate(-74.554 -659.797)" fill="#fff"/>
        <path id="Path_37398" data-name="Path 37398" d="M173.913,697.7l10-37.176h16.062l-1.389,5.164h-8.277l-2.722,10.12h5.86l-1.423,5.287h-5.86l-3.078,11.442h8.277l-1.389,5.163Z" transform="translate(-94.56 -659.797)" fill="#fff"/>
        <path id="Path_37399" data-name="Path 37399" d="M222.372,684.422l3.311-12.31q3.545-13.176,14.709-13.177a11.733,11.733,0,0,1,4.018.609,6.308,6.308,0,0,1,2.616,1.683,6.06,6.06,0,0,1,1.331,2.644,10.894,10.894,0,0,1,.239,3.408,22.312,22.312,0,0,1-.736,4.049l-.861,3.2h-7.657l.922-3.428q.272-1.012.427-1.745a12.911,12.911,0,0,0,.225-1.673,4.826,4.826,0,0,0-.081-1.529,1.894,1.894,0,0,0-.65-1,2.057,2.057,0,0,0-1.354-.413q-3.379,0-4.857,5.494l-4.317,16.048q-1.472,5.473,1.907,5.473a3.246,3.246,0,0,0,1.84-.557,4.518,4.518,0,0,0,1.409-1.58,14.773,14.773,0,0,0,.945-2q.371-.981.71-2.241l1.027-3.821h7.614l-.845,3.14a29.98,29.98,0,0,1-1.419,3.924,19.634,19.634,0,0,1-2.03,3.49,13.938,13.938,0,0,1-2.727,2.86,12.251,12.251,0,0,1-3.574,1.88,13.8,13.8,0,0,1-4.512.712,11.583,11.583,0,0,1-4.252-.692,6.347,6.347,0,0,1-2.687-1.859,6.675,6.675,0,0,1-1.292-2.871,12.043,12.043,0,0,1-.18-3.583,24.828,24.828,0,0,1,.779-4.131" transform="translate(-120.453 -658.936)" fill="#fff"/>
        <path id="Path_37400" data-name="Path 37400" d="M274.081,697.7l10-37.176h7.785l-4.1,15.243h5.583l4.1-15.243h7.828l-10,37.176h-7.828l4.461-16.585h-5.582L281.866,697.7Z" transform="translate(-149.023 -659.797)" fill="#fff"/>
        <path id="Path_37401" data-name="Path 37401" d="M332.485,697.672l10.006-37.2h5.6l3.215,19.455,5.233-19.455H363L353,697.672h-5.39l-2.877-20.633-5.55,20.633Z" transform="translate(-180.779 -659.772)" fill="#fff"/>
        <path id="Path_37402" data-name="Path 37402" d="M394.571,684.607l3.361-12.5q3.545-13.177,14.795-13.177,11.272,0,7.727,13.177l-3.311,12.309a27.3,27.3,0,0,1-1.451,4.121,18.632,18.632,0,0,1-2.129,3.583,14.361,14.361,0,0,1-2.871,2.881,12.578,12.578,0,0,1-3.722,1.869,15.117,15.117,0,0,1-4.632.681,11.972,11.972,0,0,1-4.247-.671,6.4,6.4,0,0,1-2.719-1.817,6.588,6.588,0,0,1-1.33-2.809,11.686,11.686,0,0,1-.223-3.542,23.1,23.1,0,0,1,.752-4.111m14.281,1.694,4.323-16.068q1.478-5.494-2.009-5.494a3.707,3.707,0,0,0-1.911.507,4.344,4.344,0,0,0-1.442,1.383,11.319,11.319,0,0,0-.948,1.735,13.659,13.659,0,0,0-.642,1.869L401.9,686.3q-1.472,5.473,1.992,5.473,3.487,0,4.958-5.473" transform="translate(-214.103 -658.935)" fill="#fff"/>
        <path id="Path_37403" data-name="Path 37403" d="M448.544,697.7l10-37.176h7.785l-8.611,32.013h7.657l-1.389,5.163Z" transform="translate(-243.883 -659.797)" fill="#fff"/>
        <path id="Path_37404" data-name="Path 37404" d="M494.927,684.607l3.361-12.5q3.545-13.177,14.795-13.177,11.272,0,7.727,13.177L517.5,684.422a27.312,27.312,0,0,1-1.45,4.121,18.64,18.64,0,0,1-2.13,3.583,14.362,14.362,0,0,1-2.871,2.881,12.583,12.583,0,0,1-3.721,1.869,15.122,15.122,0,0,1-4.632.681,11.971,11.971,0,0,1-4.247-.671,6.4,6.4,0,0,1-2.72-1.817,6.6,6.6,0,0,1-1.33-2.809,11.688,11.688,0,0,1-.223-3.542,23.1,23.1,0,0,1,.752-4.111m14.281,1.694,4.322-16.068q1.478-5.494-2.009-5.494a3.705,3.705,0,0,0-1.911.507,4.336,4.336,0,0,0-1.441,1.383,11.267,11.267,0,0,0-.948,1.735,13.667,13.667,0,0,0-.642,1.869L502.257,686.3q-1.473,5.473,1.993,5.473,3.486,0,4.958-5.473" transform="translate(-268.669 -658.935)" fill="#fff"/>
        <path id="Path_37405" data-name="Path 37405" d="M553.887,685.207l3.523-13.094q3.544-13.177,14.9-13.177a12.254,12.254,0,0,1,4.1.609,6.464,6.464,0,0,1,2.681,1.683,6.025,6.025,0,0,1,1.363,2.644,10.875,10.875,0,0,1,.26,3.408,21.677,21.677,0,0,1-.726,4.049l-.589,2.189H571.96l.7-2.6q.261-.971.4-1.7a10.156,10.156,0,0,0,.171-1.631,4.059,4.059,0,0,0-.18-1.477,1.973,1.973,0,0,0-.787-.97,2.662,2.662,0,0,0-1.52-.392q-3.572,0-5.049,5.494l-4.317,16.048q-1.472,5.473,2.1,5.473,3.551,0,5.078-5.68l.8-2.973h-4.406l1.45-5.391H578.6l-5.144,19.125h-5.347l-.284-2.6a10.435,10.435,0,0,1-3.449,2.406,9.8,9.8,0,0,1-3.991.918,8.085,8.085,0,0,1-3.577-.733,5.476,5.476,0,0,1-2.28-1.941,7.945,7.945,0,0,1-1.086-2.84,12.385,12.385,0,0,1-.172-3.335,19.531,19.531,0,0,1,.62-3.5" transform="translate(-300.799 -658.936)" fill="#fff"/>
        <path id="Path_37406" data-name="Path 37406" d="M619.633,697.7l3.306-12.289L622.4,660.52h7.336l-.8,16.337q1.385-2.685,4.186-8.168t4.165-8.169h7.123l-13.945,24.887L627.161,697.7Z" transform="translate(-336.907 -659.797)" fill="#fff"/>
      </g>
    </g>
  </g>
</svg>
